<?xml version="1.0" encoding="UTF-8" standalone="no"?>
<!-- Created with Inkscape (http://www.inkscape.org/) -->

<svg
   width="51.345337"
   height="48.788315"
   viewBox="0 0 51.345337 48.788315"
   version="1.1"
   id="svg1"
   xml:space="preserve"
   inkscape:version="1.4 (86a8ad7, 2024-10-11)"
   sodipodi:docname="drawing.svg"
   xmlns:inkscape="http://www.inkscape.org/namespaces/inkscape"
   xmlns:sodipodi="http://sodipodi.sourceforge.net/DTD/sodipodi-0.dtd"
   xmlns="http://www.w3.org/2000/svg"
   xmlns:svg="http://www.w3.org/2000/svg"><sodipodi:namedview
     id="namedview1"
     pagecolor="#505050"
     bordercolor="#eeeeee"
     borderopacity="1"
     inkscape:showpageshadow="0"
     inkscape:pageopacity="0"
     inkscape:pagecheckerboard="0"
     inkscape:deskcolor="#505050"
     inkscape:document-units="px"
     showguides="true"
     inkscape:zoom="0.16834372"
     inkscape:cx="781.13994"
     inkscape:cy="1529.6086"
     inkscape:window-width="1366"
     inkscape:window-height="697"
     inkscape:window-x="-8"
     inkscape:window-y="-8"
     inkscape:window-maximized="1"
     inkscape:current-layer="layer1"
     showgrid="false"><sodipodi:guide
       position="1393.7848,427.56162"
       orientation="1,0"
       id="guide17"
       inkscape:locked="false" /><inkscape:page
       x="0"
       y="0"
       width="51.345337"
       height="48.788315"
       id="page2"
       margin="0"
       bleed="0" /></sodipodi:namedview><defs
     id="defs1" /><g
     inkscape:label="Layer 1"
     inkscape:groupmode="layer"
     id="layer1"
     transform="translate(-458.5806,226.08066)"><g
       id="g23"
       transform="translate(149.99075,-10.395398)"><path
         d="m 328.11091,-169.33588 v -15.4563 c 0,-0.59632 0,-0.8946 -0.0674,-1.17532 -0.0598,-0.24902 -0.15829,-0.48681 -0.29202,-0.7051 -0.15082,-0.24609 -0.36174,-0.45706 -0.78355,-0.87875 l -14.78667,-14.78674 c -0.42181,-0.42181 -0.63273,-0.63273 -0.78356,-0.87887 -0.13372,-0.21821 -0.23226,-0.4561 -0.29201,-0.70497 -0.0674,-0.2807 -0.0674,-0.57896 -0.0674,-1.1755 v -4.23707 c 0,-1.36593 0,-2.04891 0.26582,-2.57062 0.23385,-0.45891 0.60696,-0.83202 1.06587,-1.06587 0.52171,-0.26582 1.20469,-0.26582 2.57062,-0.26582 h 36.09632 c 1.36605,0 2.04895,0 2.57064,0.26582 0.45901,0.23385 0.83192,0.60696 1.06582,1.06587 0.26584,0.52171 0.26584,1.20469 0.26584,2.57062 v 4.23707 c 0,0.59654 0,0.8948 -0.0673,1.1755 -0.0598,0.24887 -0.15829,0.48676 -0.29219,0.70497 -0.15072,0.24614 -0.36169,0.45706 -0.78338,0.87887 l -8.61288,8.61281"
         stroke="#000000"
         stroke-width="4.87788"
         stroke-linecap="round"
         stroke-linejoin="round"
         id="path1-7-4"
         style="fill:none;stroke:#161616;stroke-opacity:1"
         sodipodi:nodetypes="cssscssssssssssssscccc" /><path
         fill-rule="evenodd"
         clip-rule="evenodd"
         d="m 335.70054,-184.81983 c 0,-0.87245 0.70729,-1.58516 1.57973,-1.57973 l 21.07518,0.13126 c 0.87246,0.005 1.57972,0.70728 1.57972,1.57973 0,0.87245 -0.70726,1.58515 -1.57972,1.57972 l -21.07518,-0.13126 c -0.87244,-0.005 -1.57973,-0.70728 -1.57973,-1.57972 z m 0.5388,8.02987 c 0,-0.87248 0.70727,-1.57972 1.57972,-1.57972 h 15.79722 c 0.87248,0 1.57973,0.70724 1.57973,1.57972 0,0.87248 -0.70725,1.57972 -1.57973,1.57972 h -15.79722 c -0.87245,0 -1.57972,-0.70724 -1.57972,-1.57972 z m 0.73916,7.89861 c 0,-0.87248 0.70728,-1.57972 1.57972,-1.57972 h 6.3189 c 0.87248,0 1.57972,0.70724 1.57972,1.57972 0,0.87248 -0.70724,1.57972 -1.57972,1.57972 h -6.3189 c -0.87244,0 -1.57972,-0.70724 -1.57972,-1.57972 z"
         fill="#000000"
         id="path1-34"
         style="fill:#161616;fill-opacity:1;stroke:none;stroke-width:0.832711;stroke-dasharray:none;stroke-opacity:1"
         sodipodi:nodetypes="sssssssssssssssssssss" /></g></g></svg>
