<?xml version="1.0" encoding="UTF-8" standalone="no"?>
<!-- Created with Inkscape (http://www.inkscape.org/) -->

<svg
   width="48.797821"
   height="48.788315"
   viewBox="0 0 48.797821 48.788315"
   version="1.1"
   id="svg1"
   xml:space="preserve"
   inkscape:version="1.4 (86a8ad7, 2024-10-11)"
   sodipodi:docname="drawing.svg"
   xmlns:inkscape="http://www.inkscape.org/namespaces/inkscape"
   xmlns:sodipodi="http://sodipodi.sourceforge.net/DTD/sodipodi-0.dtd"
   xmlns="http://www.w3.org/2000/svg"
   xmlns:svg="http://www.w3.org/2000/svg"><sodipodi:namedview
     id="namedview1"
     pagecolor="#505050"
     bordercolor="#eeeeee"
     borderopacity="1"
     inkscape:showpageshadow="0"
     inkscape:pageopacity="0"
     inkscape:pagecheckerboard="0"
     inkscape:deskcolor="#505050"
     inkscape:document-units="px"
     showguides="true"
     inkscape:zoom="0.16834372"
     inkscape:cx="781.13994"
     inkscape:cy="1529.6086"
     inkscape:window-width="1366"
     inkscape:window-height="697"
     inkscape:window-x="-8"
     inkscape:window-y="-8"
     inkscape:window-maximized="1"
     inkscape:current-layer="layer1"
     showgrid="false"><sodipodi:guide
       position="1611.7598,437.95702"
       orientation="1,0"
       id="guide17"
       inkscape:locked="false" /><inkscape:page
       x="0"
       y="0"
       width="48.797821"
       height="48.788315"
       id="page2"
       margin="0"
       bleed="0" /></sodipodi:namedview><defs
     id="defs1" /><g
     inkscape:label="Layer 1"
     inkscape:groupmode="layer"
     id="layer1"
     transform="translate(-240.60556,215.68527)"><path
       d="m 272.32112,-183.96953 14.63364,14.63364 m 0,-14.63364 -14.63364,14.63364 m -12.1947,0 v -15.45629 c 0,-0.59633 0,-0.89461 -0.0673,-1.17533 -0.0598,-0.24902 -0.15829,-0.48681 -0.29201,-0.7051 -0.15073,-0.24609 -0.36175,-0.45706 -0.78356,-0.87875 l -14.78666,-14.78673 c -0.42182,-0.42182 -0.63274,-0.63274 -0.78356,-0.87888 -0.13366,-0.21828 -0.23219,-0.4561 -0.29202,-0.70497 -0.0673,-0.2807 -0.0673,-0.57896 -0.0673,-1.1755 v -4.23707 c 0,-1.36593 0,-2.04891 0.26582,-2.57062 0.23389,-0.45891 0.60695,-0.83202 1.06586,-1.06587 0.52172,-0.26582 1.20469,-0.26582 2.57062,-0.26582 h 36.09632 c 1.36606,0 2.04896,0 2.57065,0.26582 0.45901,0.2339 0.83192,0.60696 1.06581,1.06587 0.26585,0.52171 0.26585,1.20469 0.26585,2.57062 v 4.23707 c 0,0.59654 0,0.8948 -0.0673,1.1755 -0.0598,0.24887 -0.15828,0.48676 -0.29218,0.70497 -0.15073,0.24614 -0.3617,0.45706 -0.78339,0.87888 l -8.61287,8.6128"
       stroke="#000000"
       stroke-width="4.87788"
       stroke-linecap="round"
       stroke-linejoin="round"
       id="path1-7"
       style="fill:none;stroke:#161616;stroke-opacity:1" /></g></svg>
