<?xml version="1.0" encoding="UTF-8" standalone="no"?>
<!-- Created with Inkscape (http://www.inkscape.org/) -->

<svg
   width="1390.3209"
   height="256.24677"
   viewBox="0 0 1390.3209 256.24677"
   version="1.1"
   id="svg1"
   xml:space="preserve"
   inkscape:version="1.4 (86a8ad7, 2024-10-11)"
   sodipodi:docname="drawing.svg"
   xmlns:inkscape="http://www.inkscape.org/namespaces/inkscape"
   xmlns:sodipodi="http://sodipodi.sourceforge.net/DTD/sodipodi-0.dtd"
   xmlns:xlink="http://www.w3.org/1999/xlink"
   xmlns="http://www.w3.org/2000/svg"
   xmlns:svg="http://www.w3.org/2000/svg"><sodipodi:namedview
     id="namedview1"
     pagecolor="#505050"
     bordercolor="#eeeeee"
     borderopacity="1"
     inkscape:showpageshadow="0"
     inkscape:pageopacity="0"
     inkscape:pagecheckerboard="0"
     inkscape:deskcolor="#505050"
     inkscape:document-units="px"
     showguides="true"
     inkscape:zoom="0.16834372"
     inkscape:cx="781.13994"
     inkscape:cy="1529.6086"
     inkscape:window-width="1366"
     inkscape:window-height="697"
     inkscape:window-x="-8"
     inkscape:window-y="-8"
     inkscape:window-maximized="1"
     inkscape:current-layer="layer1"
     showgrid="false"><sodipodi:guide
       position="1608.3008,33.815071"
       orientation="1,0"
       id="guide17"
       inkscape:locked="false" /><inkscape:page
       x="0"
       y="0"
       width="1390.3209"
       height="256.24677"
       id="page2"
       margin="0"
       bleed="0" /></sodipodi:namedview><defs
     id="defs1"><linearGradient
       id="linearGradient13"
       inkscape:collect="always"><stop
         style="stop-color:#f389e5;stop-opacity:1;"
         offset="0"
         id="stop13" /><stop
         style="stop-color:#3986b0;stop-opacity:0.875;"
         offset="1"
         id="stop14" /></linearGradient><clipPath
       clipPathUnits="userSpaceOnUse"
       id="clipPath12"><rect
         style="opacity:0.842697;fill:#ea4949;fill-opacity:1;stroke:none;stroke-width:2.41657;stroke-linecap:square;stroke-miterlimit:3.1;stroke-opacity:1"
         id="rect12"
         width="2157.2766"
         height="956.70538"
         x="-46.27977"
         y="-400.76025"
         ry="17.215876" /></clipPath><clipPath
       clipPathUnits="userSpaceOnUse"
       id="clipPath13"><rect
         style="opacity:0.842697;fill:#ea4949;fill-opacity:1;stroke:none;stroke-width:2.41657;stroke-linecap:square;stroke-miterlimit:3.1;stroke-opacity:1"
         id="rect13"
         width="2157.2766"
         height="956.70538"
         x="-44.445408"
         y="-395.56204"
         ry="17.215876" /></clipPath><linearGradient
       inkscape:collect="always"
       xlink:href="#linearGradient13"
       id="linearGradient14"
       x1="122.25374"
       y1="-350.85858"
       x2="1512.4091"
       y2="-350.85858"
       gradientUnits="userSpaceOnUse"
       gradientTransform="translate(121.81088,-340.23039)" /><linearGradient
       inkscape:collect="always"
       xlink:href="#linearGradient13"
       id="linearGradient16"
       x1="1390.1974"
       y1="305.32645"
       x2="1479.731"
       y2="305.32645"
       gradientUnits="userSpaceOnUse" /></defs><g
     inkscape:label="Layer 1"
     inkscape:groupmode="layer"
     id="layer1"
     transform="translate(-244.06461,827.28569)"><g
       id="g21"><text
         xml:space="preserve"
         style="font-style:normal;font-variant:normal;font-weight:normal;font-stretch:normal;font-size:181.886px;font-family:'Abril Fatface';-inkscape-font-specification:'Abril Fatface, Normal';font-variant-ligatures:normal;font-variant-caps:normal;font-variant-numeric:normal;font-variant-east-asian:normal;text-align:start;writing-mode:lr-tb;direction:ltr;text-anchor:start;fill:url(#linearGradient14);fill-opacity:1;stroke:none;stroke-width:12.9881;stroke-linecap:square;stroke-miterlimit:3.1;stroke-dasharray:none;stroke-opacity:1"
         x="236.60728"
         y="-646.25409"
         id="text29-2-5-3"><tspan
           sodipodi:role="line"
           id="tspan29-6-1-2"
           x="236.60728"
           y="-646.25409"
           style="font-style:normal;font-variant:normal;font-weight:normal;font-stretch:normal;font-size:181.886px;font-family:'Abril Fatface';-inkscape-font-specification:'Abril Fatface, Normal';font-variant-ligatures:normal;font-variant-caps:normal;font-variant-numeric:normal;font-variant-east-asian:normal;fill:url(#linearGradient14);fill-opacity:1;stroke-width:12.9881">Groupie Trac   er</tspan></text><path
         style="fill:url(#linearGradient16);fill-opacity:1;stroke-width:0.630785"
         d="m 1444.5616,300.50472 c -1.4508,-7.9479 -2.1447,-16.58966 -3.5324,-24.66374 12.2372,-12.30032 26.493,-28.63768 28.0069,-54.68913 0.5045,-8.95717 -1.3247,-16.46351 -3.5324,-24.66373 -1.5139,-5.67708 -5.551,-20.87901 -11.6065,-18.41895 -21.1944,8.64176 -26.1776,50.46286 -20.1852,77.01897 -14.6342,15.07578 -39.361,30.21463 -43.0826,59.4831 -1.9555,15.39119 2.9647,28.95308 9.9664,38.85642 9.0202,12.80494 26.4299,24.28526 48.5074,19.23896 2.7124,18.48203 9.588,45.66889 -8.3264,53.42758 -6.5601,2.83853 -21.3205,3.09084 -22.7713,-5.36168 19.7436,3.09084 19.6805,-24.60067 5.677,-27.88075 -11.6064,-2.77546 -18.5451,8.57869 -19.0497,16.08505 -0.9462,14.06651 12.3634,24.22216 26.9976,23.90678 15.7066,-0.31541 26.8084,-9.90334 26.3669,-29.71001 -0.2523,-10.97568 -3.4693,-19.4913 -3.9739,-32.04393 12.6788,-6.05554 24.0329,-14.7604 25.5468,-32.04392 1.7662,-20.56364 -11.1018,-39.86566 -35.0086,-38.54102 z m 3.4693,-96.69949 c 5.677,-5.48783 15.2651,-4.92013 15.7066,5.23553 0.4416,9.84028 -4.6679,18.60818 -9.3987,25.42068 -4.9202,7.0648 -10.0926,13.18341 -16.5267,16.90507 -3.5954,-15.39119 1.1985,-38.73028 10.2188,-47.56128 z m -47.8136,126.53568 c 0.757,-13.05728 6.8125,-22.58214 13.2465,-30.27774 6.9386,-8.32638 15.3281,-14.6973 23.2129,-20.94211 1.3877,7.06484 2.0816,14.82347 3.0278,22.32983 -10.6603,4.73089 -22.7083,13.12035 -22.2037,30.3408 0.1891,5.9294 2.6493,11.66953 5.9925,16.14812 3.0909,4.03703 7.7587,9.02024 13.2465,8.26331 -0.2522,-3.34318 -4.2893,-4.16321 -6.3078,-6.18171 -10.1557,-9.77717 -2.5232,-29.96232 11.7326,-31.66545 1.9554,16.71581 4.2893,32.9901 6.3709,49.57976 -30.3408,4.60473 -49.769,-14.31885 -48.3182,-37.59481 z m 52.8598,35.95479 c -1.703,-16.46353 -4.5416,-31.98086 -6.1185,-48.57052 6.1185,0.75692 11.3541,3.02777 15.0126,6.43401 12.6158,11.85878 7.3803,37.84716 -8.8941,42.13651 z"
         id="path2-34-9"
         clip-path="url(#clipPath13)"
         transform="translate(-29.40263,-1003.8897)" /><text
         xml:space="preserve"
         style="font-style:normal;font-variant:normal;font-weight:normal;font-stretch:normal;font-size:181.886px;font-family:'Abril Fatface';-inkscape-font-specification:'Abril Fatface, Normal';font-variant-ligatures:normal;font-variant-caps:normal;font-variant-numeric:normal;font-variant-east-asian:normal;text-align:start;writing-mode:lr-tb;direction:ltr;text-anchor:start;fill:#161616;fill-opacity:1;stroke:none;stroke-width:12.9881;stroke-linecap:square;stroke-miterlimit:3.1;stroke-dasharray:none;stroke-opacity:1"
         x="236.77293"
         y="-647.45227"
         id="text29-2-5-3-6"><tspan
           sodipodi:role="line"
           id="tspan29-6-1-2-2"
           x="236.77293"
           y="-647.45227"
           style="font-style:normal;font-variant:normal;font-weight:normal;font-stretch:normal;font-size:181.886px;font-family:'Abril Fatface';-inkscape-font-specification:'Abril Fatface, Normal';font-variant-ligatures:normal;font-variant-caps:normal;font-variant-numeric:normal;font-variant-east-asian:normal;fill:#161616;fill-opacity:1;stroke-width:12.9881">Groupie Trac   er</tspan></text><path
         style="fill:#161616;fill-opacity:1;stroke-width:0.630785"
         d="m 1442.7272,295.3065 c -1.4508,-7.9479 -2.1447,-16.58966 -3.5324,-24.66374 12.2372,-12.30032 26.493,-28.63768 28.0069,-54.68913 0.5045,-8.95717 -1.3246,-16.46351 -3.5324,-24.66373 -1.5139,-5.67708 -5.5509,-20.87901 -11.6064,-18.41895 -21.1945,8.64176 -26.1777,50.46286 -20.1852,77.01897 -14.6343,15.07578 -39.3611,30.21463 -43.0827,59.4831 -1.9554,15.39119 2.9647,28.95308 9.9664,38.85642 9.0203,12.80494 26.4299,24.28526 48.5075,19.23896 2.7124,18.48203 9.588,45.66889 -8.3264,53.42758 -6.5602,2.83853 -21.3206,3.09084 -22.7714,-5.36168 19.7436,3.09084 19.6805,-24.60067 5.6771,-27.88075 -11.6065,-2.77546 -18.5451,8.57869 -19.0498,16.08505 -0.9461,14.06651 12.3635,24.22216 26.9977,23.90678 15.7066,-0.31541 26.8084,-9.90334 26.3668,-29.71001 -0.2522,-10.97568 -3.4692,-19.4913 -3.9739,-32.04393 12.6788,-6.05554 24.0329,-14.7604 25.5468,-32.04392 1.7662,-20.56364 -11.1018,-39.86566 -35.0086,-38.54102 z m 3.4693,-96.69949 c 5.6771,-5.48783 15.2651,-4.92013 15.7067,5.23553 0.4415,9.84028 -4.6679,18.60818 -9.3988,25.42068 -4.9202,7.0648 -10.0926,13.18341 -16.5266,16.90507 -3.5955,-15.39119 1.1985,-38.73028 10.2187,-47.56128 z m -47.8136,126.53568 c 0.757,-13.05728 6.8125,-22.58214 13.2466,-30.27774 6.9386,-8.32638 15.328,-14.6973 23.2129,-20.94211 1.3877,7.06484 2.0815,14.82347 3.0277,22.32983 -10.6603,4.73089 -22.7082,13.12035 -22.2036,30.3408 0.1891,5.9294 2.6493,11.66953 5.9925,16.14812 3.0908,4.03703 7.7586,9.02024 13.2464,8.26331 -0.2522,-3.34318 -4.2893,-4.16321 -6.3078,-6.18171 -10.1557,-9.77717 -2.5232,-29.96232 11.7326,-31.66545 1.9554,16.71581 4.2893,32.9901 6.3709,49.57976 -30.3408,4.60473 -49.769,-14.31885 -48.3182,-37.59481 z m 52.8599,35.95479 c -1.7031,-16.46353 -4.5417,-31.98086 -6.1186,-48.57052 6.1186,0.75692 11.3541,3.02777 15.0126,6.43401 12.6159,11.85878 7.3803,37.84716 -8.894,42.13651 z"
         id="path2-34-9-1"
         clip-path="url(#clipPath12)"
         transform="translate(-27.40263,-999.88967)" /></g></g></svg>
